<svg width="32" height="32" viewBox="0 0 32 32" fill="none" xmlns="http://www.w3.org/2000/svg">
<path d="M25.817 13.151C25.9299 13.1471 26.0425 13.166 26.148 13.2065C26.2535 13.2471 26.3498 13.3084 26.431 13.3869C26.5123 13.4655 26.577 13.5596 26.6211 13.6636C26.6653 13.7676 26.688 13.8795 26.688 13.9925C26.688 14.1055 26.6653 14.2174 26.6211 14.3214C26.577 14.4254 26.5123 14.5195 26.431 14.5981C26.3498 14.6766 26.2535 14.7379 26.148 14.7785C26.0425 14.819 25.9299 14.8379 25.817 14.834H23.478V16.334H25.817C25.9306 16.3285 26.0442 16.346 26.1508 16.3857C26.2574 16.4254 26.3549 16.4863 26.4373 16.5647C26.5197 16.6432 26.5852 16.7375 26.6301 16.8421C26.6749 16.9467 26.698 17.0592 26.698 17.173C26.698 17.2868 26.6749 17.3993 26.6301 17.5039C26.5852 17.6085 26.5197 17.7028 26.4373 17.7813C26.3549 17.8597 26.2574 17.9206 26.1508 17.9603C26.0442 18 25.9306 18.0175 25.817 18.012H22.64C22.4179 18.0112 22.2052 17.9225 22.0483 17.7653C21.8915 17.608 21.8033 17.3951 21.803 17.173V10.813C21.803 10.35 22.178 9.97 22.64 9.97H25.823C26.0389 9.98116 26.2423 10.075 26.391 10.232C26.5396 10.389 26.6222 10.5972 26.6215 10.8134C26.6209 11.0296 26.5371 11.2373 26.3875 11.3934C26.2379 11.5495 26.034 11.6421 25.818 11.652H23.479V13.152L25.817 13.151ZM20.683 17.172C20.6812 17.3947 20.5915 17.6077 20.4334 17.7646C20.2753 17.9216 20.0617 18.0097 19.839 18.01C19.7071 18.0113 19.5768 17.9819 19.4582 17.9241C19.3397 17.8663 19.2362 17.7817 19.156 17.677L15.901 13.25V17.171C15.901 17.3935 15.8126 17.6069 15.6553 17.7643C15.4979 17.9216 15.2845 18.01 15.062 18.01C14.8395 18.01 14.6261 17.9216 14.4687 17.7643C14.3114 17.6069 14.223 17.3935 14.223 17.171V10.811C14.223 10.452 14.458 10.13 14.796 10.015C14.8795 9.98552 14.9675 9.97096 15.056 9.972C15.316 9.972 15.556 10.113 15.717 10.311L18.998 14.748V10.811C18.998 10.348 19.373 9.968 19.837 9.968C20.301 9.968 20.681 10.348 20.681 10.811L20.683 17.172ZM13.027 17.172C13.0259 17.3951 12.9365 17.6086 12.7783 17.7659C12.6201 17.9231 12.4061 18.0113 12.183 18.011C11.9616 18.0092 11.7499 17.92 11.5939 17.7629C11.4379 17.6057 11.3503 17.3934 11.35 17.172V10.812C11.35 10.349 11.725 9.969 12.189 9.969C12.652 9.969 13.028 10.349 13.028 10.812L13.027 17.172ZM9.74 18.011H6.557C6.33418 18.0105 6.12056 17.9221 5.96254 17.765C5.80451 17.6079 5.71484 17.3948 5.713 17.172V10.812C5.713 10.349 6.093 9.969 6.557 9.969C7.021 9.969 7.396 10.349 7.396 10.812V16.333H9.74C9.96252 16.333 10.1759 16.4214 10.3333 16.5787C10.4906 16.7361 10.579 16.9495 10.579 17.172C10.579 17.3945 10.4906 17.6079 10.3333 17.7653C10.1759 17.9226 9.96252 18.011 9.74 18.011V18.011ZM32 13.749C32 6.588 24.817 0.76 16 0.76C7.183 0.76 0 6.588 0 13.749C0 20.166 5.693 25.541 13.38 26.562C13.901 26.671 14.609 26.906 14.792 27.349C14.953 27.749 14.896 28.369 14.844 28.792L14.625 30.151C14.562 30.552 14.302 31.73 16.021 31.011C17.745 30.292 25.245 25.574 28.604 21.708C30.901 19.193 32 16.609 32 13.749Z" fill="black"/>
</svg>
