<svg width="50" height="32" xmlns="http://www.w3.org/2000/svg"><defs><radialGradient cx="50.001%" cy="49.999%" fx="50.001%" fy="49.999%" r="49.443%" gradientTransform="matrix(.96324 0 0 1 .018 0)" id="a"><stop stop-color="#FFF2E8" offset=".56%"/><stop stop-color="#FEEDDF" offset="9.61%"/><stop stop-color="#FDE1C7" offset="24.38%"/><stop stop-color="#FACD9F" offset="43.03%"/><stop stop-color="#F6B168" offset="64.84%"/><stop stop-color="#F08E22" offset="89.01%"/><stop stop-color="#EE7D00" offset="100%"/></radialGradient></defs><g fill="none"><path d="M50 29.7a1.69 1.69 0 0 1-1.7 1.7H1.7A1.75 1.75 0 0 1 0 29.7v-28A1.69 1.69 0 0 1 1.7 0h46.7A1.73 1.73 0 0 1 50 1.7v28z" fill="#FFF"/><path d="M41.823 4.361c1.001 0 1.816.815 1.816 1.817v18.644a1.818 1.818 0 0 1-1.816 1.817H9.177a1.818 1.818 0 0 1-1.816-1.817V6.178c0-1.002.815-1.817 1.816-1.817h32.646zm0-.361H9.177A2.178 2.178 0 0 0 7 6.178v18.644C7 26.025 7.975 27 9.177 27h32.646A2.177 2.177 0 0 0 44 24.822V6.178A2.177 2.177 0 0 0 41.823 4z" fill="#EF7D00"/><path d="M43.95 25.718v-8.69s-9.904 6.885-28.045 9.969h26.063c1.114-.034 1.764-.391 1.983-1.279z" fill="#EF7D00"/><path d="M16.823.084c-1.488 0-2.695 1.146-2.695 2.56 0 1.502 1.155 2.626 2.695 2.626 1.502 0 2.688-1.139 2.688-2.597 0-1.45-1.178-2.589-2.688-2.589z" fill="url(#a)" transform="translate(10 10)"/><path d="M11.52 10.177h-1.448v4.98h1.441c.765 0 1.318-.178 1.803-.574a2.49 2.49 0 0 0 .918-1.913c0-1.47-1.115-2.493-2.713-2.493zm1.153 3.74c-.311.278-.713.397-1.35.397h-.265v-3.293h.265c.637 0 1.023.112 1.35.403.341.298.544.761.544 1.239 0 .478-.203.957-.544 1.255zm2.016-3.74h1v4.98h-1zm3.396 1.911c-.592-.216-.767-.359-.767-.627 0-.313.31-.552.736-.552.295 0 .538.12.796.402l.515-.663a2.228 2.228 0 0 0-1.486-.554c-.893 0-1.576.613-1.576 1.426 0 .688.318 1.038 1.243 1.368.387.134.583.223.682.284a.594.594 0 0 1 .296.514c0 .404-.326.702-.766.702-.47 0-.849-.23-1.076-.664l-.636.606c.454.656 1 .948 1.75.948 1.024 0 1.743-.673 1.743-1.636 0-.792-.332-1.15-1.454-1.554zm1.765.582c0 1.465 1.167 2.6 2.668 2.6.425 0 .789-.083 1.236-.291v-1.143c-.394.388-.743.545-1.19.545-.993 0-1.698-.71-1.698-1.718 0-.956.727-1.71 1.652-1.71.47 0 .827.164 1.236.56V10.37c-.432-.216-.789-.305-1.213-.305-1.494 0-2.691 1.158-2.691 2.605zm11.892.853l-1.349-3.346h-1.076l2.145 5.108h.53l2.184-5.108h-1.069zm2.882 1.634h2.796v-.843h-1.81V12.97h1.742v-.843H35.61v-1.105h1.811v-.844h-2.796zm6.699-3.51c0-.933-.651-1.47-1.789-1.47h-1.463v4.98h.986v-2.001h.13l1.363 2.001h1.213L40.17 13.06c.744-.15 1.153-.65 1.153-1.413zm-1.979.823h-.287v-1.51h.303c.615 0 .949.255.949.74 0 .5-.334.77-.965.77z" fill="#05171D"/><path d="M42.136 10.567c0-.1-.081-.153-.231-.153h-.198v.5h.145v-.195l.173.195h.182l-.204-.207c.086-.019.133-.07.133-.14zm-.256.068h-.027v-.13h.028c.073 0 .11.022.11.064 0 .044-.039.066-.111.066z" fill="#1D1D1B"/><path d="M41.872 10.249a.385.385 0 0 0-.39.383c0 .212.175.383.39.383a.385.385 0 0 0 .384-.383.385.385 0 0 0-.384-.383zm0 .697a.312.312 0 0 1-.312-.313.31.31 0 0 1 .311-.314c.168 0 .306.141.306.314a.312.312 0 0 1-.306.313zm-22.964 5.52l1.318 1.362v-1.29h.189v1.74l-1.319-1.358v1.284h-.188z" fill="#1D1D1B"/><path d="M18.89 16.466v1.755h.224v-1.258l1.318 1.359V16.52h-.223v1.265l-1.319-1.362v.043zm.035.044l1.32 1.361v-1.317h.152v1.682l-1.318-1.36v1.31h-.154V16.51zm2.403.027h.877v.173h-.689v.495h.669v.172h-.669v.654h.689v.173h-.877z" fill="#1D1D1B"/><path d="M22.205 16.52h-.895v1.701h.913v-.207h-.689v-.62h.668v-.206h-.668v-.46h.689v-.208h-.018zm-.018.034v.138H21.5v.53h.668v.138H21.5v.688h.688v.138h-.841v-1.632h.841zm1.348 1.65h-.188V16.71h-.408v-.173h1.009v.173h-.413z" fill="#1D1D1B"/><path d="M23.948 16.52H22.92v.208h.409v1.493h.223v-1.493h.413v-.208h-.017zm-.018.034v.138h-.412v1.494h-.154v-1.494h-.408v-.138h.974zm1.278 1.232l.548-1.335.547 1.335.444-1.248h.205l-.65 1.752-.546-1.343-.548 1.343-.647-1.752h.203z" fill="#1D1D1B"/><path d="M25.74 16.444l-.53 1.293c-.03-.08-.434-1.217-.434-1.217h-.241l.673 1.82.548-1.345.547 1.344.673-1.819h-.242l-.432 1.217c-.034-.08-.546-1.332-.546-1.332l-.016.04zm-.516 1.348s.5-1.22.532-1.294l.548 1.337.455-1.28h.167l-.624 1.686-.546-1.34-.547 1.34-.624-1.687h.167l.455 1.281.017-.043zm4.163-.42c0 .48-.4.86-.881.86a.87.87 0 0 1-.882-.86c0-.477.399-.863.882-.863.481 0 .881.386.881.863zm-1.575-.002a.694.694 0 0 0 1.386 0 .69.69 0 0 0-.692-.69.69.69 0 0 0-.694.69z" fill="#1D1D1B"/><path d="M27.606 17.372a.89.89 0 0 0 .9.878.89.89 0 0 0 .899-.878.89.89 0 0 0-.9-.88.89.89 0 0 0-.899.88zm.035 0c0-.466.388-.846.865-.846.475 0 .864.38.864.846a.855.855 0 0 1-.864.843.855.855 0 0 1-.865-.843z" fill="#1D1D1B"/><path d="M27.794 17.37c0 .391.32.707.712.707.391 0 .71-.316.71-.707a.71.71 0 1 0-1.42 0zm.036 0a.675.675 0 0 1 1.35 0 .674.674 0 0 1-1.35 0zm2.562.834h-.188v-1.667h.244c.32 0 .619.085.619.46a.437.437 0 0 1-.424.46l.538.747h-.231l-.51-.732h-.048v.732zm0-.896h.058c.213 0 .429-.039.429-.298 0-.273-.204-.3-.43-.3h-.057v.599z" fill="#1D1D1B"/><path d="M30.204 16.52h-.018v1.701h.224v-.732h.029c0 .013.497.724.497.724l.245.008h.035l-.543-.754a.452.452 0 0 0 .411-.47c0-.322-.207-.477-.636-.477h-.244zm.244.034c.41 0 .601.141.601.443 0 .248-.16.422-.407.443l-.032.002.538.744h-.198c0-.012-.497-.724-.497-.724l-.061-.007h-.018v.731h-.153v-1.632h.227z" fill="#1D1D1B"/><path d="M30.392 16.692h-.018v.633h.076c.208 0 .446-.036.446-.315 0-.294-.231-.318-.448-.318h-.056zm.056.036c.217 0 .413.02.413.282 0 .247-.207.28-.41.28h-.041v-.562h.038zm2.441-.191h.253l-.794.777.82.89h-.26l-.693-.765-.047.045v.72h-.188v-1.667h.188v.714z" fill="#1D1D1B"/><path d="M33.142 16.52h-.26s-.641.634-.696.69v-.69h-.223v1.701h.223v-.734a.113.113 0 0 0 .028-.023l.682.751.273.006h.04s-.814-.883-.838-.907c.025-.023.813-.794.813-.794h-.042zm-.043.034l-.775.759.805.873h-.22c0-.009-.681-.759-.681-.759l-.012-.014-.06.06-.005.713h-.153v-1.632h.153v.74l.745-.74h.203z" fill="#1D1D1B"/></g></svg>