<svg version="1.1" id="レイヤー_1" xmlns="http://www.w3.org/2000/svg" x="0" y="0" width="50" height="32" xml:space="preserve"><style>.st3{fill:#fff}.st5{display:none}.st6{display:inline}.st7{fill:#f9f9f9}.st9{fill:#fbb231}.st10{fill:#ec1c2e}.st11{fill:none;stroke:#fff;stroke-width:8.612327e-02;stroke-miterlimit:2.6131}</style><path d="M33.7 17.1c.1 1.8.1 3.7 0 5.6-.1.7-.5 1.4-1.2 1.9-.5.3-1.2.4-1.8.4h-2.4V9.5c.1-1 .9-1.9 1.9-2.2 1.2-.2 2.3-.1 3.5-.1l.1.8v8.8l-.1.3z" fill="#00a551"/><path d="M16.2 16.5V9.2c.2-.8.8-1.6 1.6-1.9 1.2-.4 2.6-.2 3.8-.2.1 1.2 0 2.7 0 3.7l.1 9.5c-.2 1.5.4 3.4-1.4 4.3-1.2.6-2.7.2-4 .3v-8.4h-.1z" fill="#0071bb"/><path class="st3" d="M16.2 16.8c.5.6 1.2 1.1 2 1.2 1 .1 2.3.2 3-.8.5-.5.2-1.2.3-1.8v-1.2c-.6-.1-1.1 0-1.8 0-.3 1.2.5 2.6-.9 3.3-.3.1-.8 0-1.2-.2-.5-.1-.2-1-1-.8l-.4-.1v.4z"/><path d="M27.7 8.1v14.8c-.2.7-.8 1.5-1.5 1.7-1.2.4-2.6.2-3.9.2V9.3c.1-.7.5-1.4 1.2-1.8.5-.3 1-.4 1.6-.4h2.6v1z" fill="#ec1c24"/><path class="st3" d="M27.4 14.2c.1.2 0 .3 0 .5-.9-.2-2-.5-2.9.2-.3.4-.5.7-.5 1.2.1.5.4 1.1.9 1.3.8.2 1.6 0 2.3-.2 0 .2.1.4 0 .5h-3.5c-.6-.1-1.1-.5-1.4-1.1-.2-.6-.1-1.4.3-1.9.4-.4.9-.7 1.5-.6l3.3.1zm6.3 2.9c-.1.4-.4.7-.8.8h-4.3l-.2-.1v-3.6h2.7c.8.1 1.8-.3 2.2.5.1.3.1.6-.1.9-.1.2-.4.2-.5.4.3.1.7.4.8.7v.4h.2zm-3.6-2.5c-.1.3-.1.8 0 1.2.6 0 1.5.2 1.9-.3.2-.2.1-.5 0-.6-.6-.5-1.3-.2-1.9-.3zm1.6 1.6c-.6-.1-1.2-.1-1.7 0 0 .5 0 .8.1 1.2.6 0 1.3.1 1.8-.2.2-.2.2-.4.2-.6-.1-.1-.2-.3-.4-.4z"/><g id="Layer_2" class="st5"><g class="st6"><path class="st7" d="M50 30c0 .9-.7 1.7-1.7 1.7H1.7C.7 31.6 0 30.9 0 30V2C0 1.1.7.3 1.7.3h46.7c.9.1 1.6.8 1.6 1.7v28z"/><path class="st3" d="M15.5 15.3v-.5l-.2.5h-2.1l-.3-.5v.5H9.1l-.5-1.1h-.8l-.5 1.1h-2V12l1.5-3.3h2.8l.4.9v-.9h3.4l.8 1.6.8-1.6h10.9s.6 0 .9.3v-.3h2.7V9s.5-.4 1.2-.4h4.8l.4 1v-1H39l.6 1v-1h3v6.6h-3l-.7-1.2v1.1h-3.8l-.5-1.2h-.7l-.5 1.2H31s-.9 0-1.5-.5v.5H25v-1.5c0-.2-.2-.2-.2-.2h-.2v1.7h-9.1v.2zm-2.3 1.4h6l.9 1 .9-1h4.6s.4 0 .8.2v-.2h4.1c.5 0 1 .3 1 .3v-.3h5.3v.2s.4-.2.9-.2h3.4v.2s.4-.2.9-.2h2.7v6.2s-.4.4-1.1.4H40v-.2s-.3.2-.9.2h-9.4v-1.6c0-.2-.1-.2-.2-.2h-.1v1.8h-2.9v-1.8s-.3.2-.9.2h-1.1v1.6h-3.6l-.8-1-.9 1h-5.9l-.1-6.6z"/><path d="M32.1 17.7h3.8v1h-2.6v.9h2.5v.9h-2.5v.9h2.6v1h-3.8zm11 1.8c1.4.1 1.5.8 1.5 1.5 0 .9-.7 1.3-1.5 1.3h-2.4v-1h1.9c.3 0 .8 0 .8-.4 0-.2-.1-.3-.4-.4-.2 0-.7-.1-.8-.1-1.3 0-1.6-.7-1.6-1.4 0-.9.6-1.4 1.4-1.4h2.4v1h-1.8c-.4 0-.8 0-.8.4 0 .3.2.3.5.4.1.1.7.1.8.1zm-4.3 0c1.4.1 1.5.8 1.5 1.5 0 .9-.7 1.3-1.5 1.3h-2.4v-1h1.9c.3 0 .8 0 .8-.4 0-.2-.1-.3-.4-.4-.2 0-.7-.1-.8-.1-1.3 0-1.6-.7-1.6-1.4 0-.9.6-1.4 1.4-1.4h2.4v1h-1.8c-.4 0-.8 0-.8.4 0 .3.2.3.5.4.1.1.7.1.8.1zm-13.6-1.8h-4l-1.3 1.5-1.3-1.5H14v4.7h4.4l1.4-1.5 1.3 1.6h2.2v-1.6h1.5c.6 0 1.7 0 1.7-1.7.1-1.2-.8-1.5-1.3-1.5zm-7.4 3.7h-2.6v-.9h2.5v-.9h-2.5v-.9H18l1.1 1.3-1.3 1.4zm4.4.5l-1.7-2 1.7-1.8v3.8zm2.6-2.1h-1.4v-1.1h1.4c.5 0 .6.3.6.5 0 .4-.1.6-.6.6zm5.9.5c.6-.3.8-.7.8-1.3 0-1-.8-1.3-1.4-1.3h-3v4.7h1.1v-1.7h1.5c.4 0 .6.4.6.8v.9h1.1v-1c.1-.7-.1-1.1-.7-1.1zm-1-.5h-1.4v-1.1h1.4c.5 0 .6.3.6.5.1.4-.1.6-.6.6zM27.6 9.6h1.1v4.7h-1.1zm-9.4 0H22v1h-2.6v.9h2.5v.9h-2.5v.9H22v1h-3.8zm8 2.6c.6-.3.8-.7.8-1.3 0-1-.8-1.3-1.4-1.3h-3v4.7h1.1v-1.7h1.5c.4 0 .6.4.6.8v.9H27v-1c0-.7-.2-1.1-.8-1.1zm-1-.5h-1.4v-1.1h1.4c.5 0 .6.3.6.5.1.4-.1.6-.6.6zm-9.6-2.1l-1.4 3.1-1.4-3.1H11v4.5L9 9.6H7.4l-2 4.7h1.2l.4-1h2.3l.5 1h2.3v-3.5l1.5 3.5h1l1.6-3.4v3.4h1.1V9.6h-1.7zm-8.1 2.6l.7-1.6.7 1.6H7.5zm33.1-2.6v3.2l-1.9-3.2H37V14l-2-4.4h-1.5l-1.6 3.6h-.7c-.3-.1-.7-.3-.7-1.1v-.3c0-1.1.6-1.2 1.4-1.2h.7v-1H31c-.5 0-1.7.4-1.7 2.3 0 1.3.5 2.4 1.8 2.4h1.5l.4-1h2.3l.5 1h2.3v-3.4l2.1 3.4h1.6V9.6h-1.2zm-7 2.7l.7-1.6.7 1.6h-1.4z" fill="#0078a9"/></g></g><g id="Layer_3" class="st5"><g class="st6"><path class="st7" d="M50 30c0 .9-.7 1.7-1.7 1.7H1.7C.7 31.6 0 30.9 0 30V2C0 1.1.7.3 1.7.3h46.7c.9.1 1.6.8 1.6 1.7v28z"/><path class="st9" d="M31 25h.5l.4-.1h.5l.4-.1.5-.1.4-.1.4-.2.4-.1.4-.2.4-.2.4-.2.3-.3.4-.2.3-.3.4-.3.3-.3.3-.3.2-.3.3-.3.3-.4.2-.4.2-.3.2-.4.2-.4.2-.4.1-.4.1-.5.1-.4.1-.4.1-.5v-1.8l-.1-.5-.1-.4-.1-.4-.1-.5-.1-.4-.2-.4-.2-.4-.2-.4-.2-.3-.2-.4-.3-.4-.3-.3-.2-.3-.3-.3-.3-.3-.4-.3-.3-.3-.4-.2-.3-.3-.4-.2-.4-.2-.4-.2-.4-.1-.4-.2-.4-.1-.5-.1-.4-.1h-.5l-.4-.1h-1l-.4.1h-.5l-.4.1-.4.1-.5.1-.4.2-.4.1-.4.2-.4.2-.3.2-.4.3-.4.2-.3.3-.3.3-.3.3-.3.3-.3.3-.3.3-.2.4-.3.4-.2.3-.2.4-.1.4-.2.4-.1.4-.2.5-.1.4v.4l-.1.5v1.8l.1.5v.4l.1.4.2.5.1.4.2.4.1.4.2.4.2.3.3.4.2.4.3.3.3.3.3.3.3.3.3.3.3.3.4.2.4.3.3.2.4.2.4.2.4.1.4.2.5.1.4.1.4.1h.5l.4.1h.5z"/><path class="st10" d="M19 25h.5l.4-.1h.5l.4-.1.4-.1.5-.1.4-.2.4-.1.4-.2.4-.2.3-.2.4-.3.4-.2.3-.3.3-.3.3-.3.3-.3.3-.3.3-.3.2-.4.3-.4.2-.3.2-.4.2-.4.1-.4.2-.4.1-.5.1-.4.1-.4v-.9l.1-.5-.1-.5v-.9l-.1-.4-.1-.4-.1-.5-.2-.4-.1-.4-.2-.4-.2-.4-.2-.3-.3-.4-.2-.4-.3-.3-.3-.3-.3-.3-.3-.3-.3-.3-.3-.3-.4-.2-.4-.3-.3-.2-.4-.2-.4-.2-.4-.1-.4-.2-.5-.1-.4-.1-.4-.1h-.5l-.4-.1h-1l-.4.1h-.5l-.4.1-.4.1-.5.1-.4.2-.4.1-.4.2-.4.2-.4.2-.3.3-.4.2-.3.3-.3.3-.4.3-.3.3-.2.3-.3.3-.3.4-.2.4-.2.3-.2.4-.2.4-.1.4-.2.4-.1.5-.1.4-.1.4v.5l-.1.4v1l.1.4v.5l.1.4.1.4.1.5.2.4.1.4.2.4.2.4.2.3.2.4.3.4.3.3.2.3.3.3.4.3.3.3.3.3.4.2.3.3.4.2.4.2.4.2.4.1.4.2.5.1.4.1.4.1h.5l.4.1h.5z"/><path class="st9" d="M24 10.5h4.7V10h-4.3l-.4.5zm-.8 1.1h5.5v-.5h-5.2l-.3.5zm-.5 1h6v-.5h-5.8l-.2.5zm-.4 1.1h6.4v-.5h-6.2l-.2.5zm.3 5.3h6.1v-.5h-6.3l.2.5zm.4 1h5.7v-.4h-5.9l.2.4zm.7 1.1h5v-.5h-5.4l.4.5zm.8 1.1h4.2v-.5h-4.6l.4.5zm-2.4-7.4h6.6v-.5h-6.5l-.1.5zm4 3.1h2.6v-.5h-2.5l-.1.5zm.2-1.1h2.4v-.5h-2.3l-.1.5zm-4.3-.5h.6v.5H22v-.5z"/><path class="st3" d="M20.7 15.7h-1l-.1.1-.1.1v.1l.1.1.1.1.1.1h.2l.1.1h.2l.1.1.1.1h.1v.1l.1.1v.7l-.1.1v.1l-.1.1v.1l-.1.1h-.1l-.1.1h-.1l-.1.1h-.2l-.1.1h-1l-.1-.1h-.4v-.1l.1-.6h.4v.1h.9v-.1h.1v-.2h.1v-.1l-.1-.1-.1-.1h-.1l-.1-.1h-.1l-.1-.1H19l-.1-.1-.1-.1h-.1v-.2l-.1-.1v-.7l.1-.1v-.1l.1-.1.1-.1.1-.1h.1l.1-.1h1.7l-.2.7z"/><path class="st11" d="M20.7 15.7h-1l-.1.1-.1.1v.1l.1.1.1.1.1.1h.2l.1.1h.2l.1.1.1.1h.1v.1l.1.1v.7l-.1.1v.1l-.1.1v.1l-.1.1h-.1l-.1.1h-.1l-.1.1h-.2l-.1.1h-1l-.1-.1h-.4v-.1l.1-.6h.4v.1h.9v-.1h.1v-.2h.1v-.1l-.1-.1-.1-.1h-.1l-.1-.1h-.1l-.1-.1H19l-.1-.1-.1-.1h-.1v-.2l-.1-.1v-.7l.1-.1v-.1l.1-.1.1-.1.1-.1h.1l.1-.1h1.7l-.2.7"/><path class="st3" d="M21.5 14.3h.8l-.1.7h.5l-.1.7H22l-.3 1.7.1.1v.1h.6l-.1.5-.1.1h-.3l-.1.1h-.2l-.2-.1h-.3l-.1-.1h-.1v-.5l.6-3.3z"/><path class="st11" d="M21.5 14.3h.8l-.1.7h.5l-.1.7H22l-.3 1.7.1.1v.1h.6l-.1.5-.1.1h-.3l-.1.1h-.2l-.2-.1h-.3l-.1-.1h-.1v-.5l.6-3.3"/><path class="st11" d="M23.3 16.8v.2l.1.1v.1l.1.1.1.1.1.1h.1l.1.1h.8l.1-.1h.1l.1-.1h.1l.1-.1-.1.8H25l-.1.1h-.4l-.1.1h-.5l-.1-.1h-.3l-.2-.1h-.1l-.1-.1-.2-.1-.1-.1-.1-.1-.1-.2v-.1l-.1-.2v-1l.1-.1V16l.1-.2v-.1l.1-.1.1-.2.1-.1.2-.1.1-.1h.2l.2-.1h.9l.2.1h.1l.1.1.1.1.1.1.1.1v.1l.1.2v.6l-.1.3v.2h-2.2l.1-.6h1.4V16l-.1-.1v-.1h-.1v-.1h-.2v-.1h-.3v.1h-.1l-.1.1h-.1v.1l-.1.1v.2l-.2.6"/><path class="st3" d="M30.6 15.2h-.1l-.1-.1h-.1l-.1-.1h-.9l-.1.1h-.1l-.1.1h-.1l-.1.1v.1l-.1.1-.1.2v.1l-.1.2v.2l-.1.1v.4l.1.1v.2l.1.1.1.1.1.1.1.1h.3v.1h.5l.1-.1h.2l.1-.1h.1v-.1l-.1.8-.1.1h-.1v.1h-.4l-.2.1h-.2l-.2-.1h-.4l-.2-.1-.1-.1-.1-.1-.1-.1-.2-.1-.1-.1v-.2l-.1-.2-.1-.1V16l.1-.1v-.2l.1-.1v-.2l.1-.1v-.1l.1-.1V15l.1-.1.1-.1.1-.1v-.1h.1l.1-.1.1-.1h.1l.1-.1h.1l.1-.1h.7l.1-.1.1.1h.6v.1h.3v.1l-.1.8z"/><path class="st11" d="M30.6 15.2h-.1l-.1-.1h-.1l-.1-.1h-.9l-.1.1h-.1l-.1.1h-.1l-.1.1v.1l-.1.1-.1.2v.1l-.1.2v.2l-.1.1v.4l.1.1v.2l.1.1.1.1.1.1.1.1h.3v.1h.5l.1-.1h.2l.1-.1h.1v-.1l-.1.8-.1.1h-.1v.1h-.4l-.2.1h-.2l-.2-.1h-.4l-.2-.1-.1-.1-.1-.1-.1-.1-.2-.1-.1-.1v-.2l-.1-.2-.1-.1V16l.1-.1v-.2l.1-.1v-.2l.1-.1v-.1l.1-.1V15l.1-.1.1-.1.1-.1v-.1h.1l.1-.1.1-.1h.1l.1-.1h.1l.1-.1h.7l.1-.1.1.1h.6v.1h.3v.1l-.1.8"/><path class="st3" d="M38 18.3h-.8v-.4.1h-.1v.1H37l-.1.1h-.1l-.1.1H36l-.1-.1-.1-.1-.1-.1-.1-.1-.1-.1-.1-.1v-.1l-.1-.2v-.3l-.1-.1v-.2l.1-.1v-.4l.1-.1.1-.2v-.1l.1-.2.1-.1.1-.1.1-.1.1-.1.1-.1h.1l.1-.1h.2l.1-.1h.5l.1.1h.1l.1.1.1.1h.1v.2h.1l.2-1.2h.8l-.7 4z"/><path class="st11" d="M38 18.3h-.8v-.4.1h-.1v.1H37l-.1.1h-.1l-.1.1H36l-.1-.1-.1-.1-.1-.1-.1-.1-.1-.1-.1-.1v-.1l-.1-.2v-.3l-.1-.1v-.2l.1-.1v-.4l.1-.1.1-.2v-.1l.1-.2.1-.1.1-.1.1-.1.1-.1.1-.1h.1l.1-.1h.2l.1-.1h.5l.1.1h.1l.1.1.1.1h.1v.2h.1l.2-1.2h.8l-.7 4"/><path class="st9" d="M36.6 17.5h.3l.1-.1h.1v-.1h.1v-.1l.1-.1V17l.1-.1v-.2l.1-.1v-.3h-.1V16l-.1-.1-.1-.1h-.1l-.1-.1-.1.1h-.2v.1h-.1l-.1.1-.1.1v.1l-.1.1v.3h-.1v.5l.1.1v.1l.1.1.1.1h.1z"/><path class="st3" d="M18.1 17.6l-.2.7h-.7v-.4l-.1.1-.1.1-.1.1h-.3l-.1.1h-.6l-.1-.1h-.1v-.1h-.1l-.1-.1-.1-.1v-.1l-.1-.1v-.5l.1-.1v-.2l.1-.1.1-.1v-.1l.1-.1h.1l.1-.1h.1l.1-.1h.2l.1-.1h1v-.1h.1v-.2h-.1v-.1h-.1v-.1h-1.2v.1h-.3v.1l.2-.8h.1l.1-.1h1.4l.1.1h.2l.1.1h.1l.1.1v.1l.1.1v.1h.1v.4l-.3 1.6z"/><path class="st11" d="M18.1 17.6l-.2.7h-.7v-.4l-.1.1-.1.1-.1.1h-.3l-.1.1h-.6l-.1-.1h-.1v-.1h-.1l-.1-.1-.1-.1v-.1l-.1-.1v-.5l.1-.1v-.2l.1-.1.1-.1v-.1l.1-.1h.1l.1-.1h.1l.1-.1h.2l.1-.1h1v-.1h.1v-.2h-.1v-.1h-.1v-.1h-1.2v.1h-.3v.1l.2-.8h.1l.1-.1h1.4l.1.1h.2l.1.1h.1l.1.1v.1l.1.1v.1h.1v.4l-.3 1.6"/><path class="st10" d="M17.3 16.8v-.1H17v.1h-.4v.1h-.1l-.1.1-.1.1v.1h-.1v.1l.1.1v.1l.1.1h.4v-.1h.2l.1-.1.1-.1v-.1h.1v-.4z"/><path class="st3" d="M11.7 18.3h-.8l.7-4H13l.1 2.3 1-2.3h1.5l-.7 4h-.8l.5-3-1.3 3h-.9v-1l-.1-.5v-1l-.1-.4v-.1l-.5 3z"/><path class="st11" d="M11.7 18.3h-.8l.7-4H13l.1 2.3 1-2.3h1.5l-.7 4h-.8l.5-3-1.3 3h-.9v-1l-.1-.5v-1l-.1-.4v-.1l-.5 3"/><path class="st3" d="M33.1 17.6l-.1.7h-.8v-.4.1h-.1l-.1.1h-.1v.1h-.3v.1h-.7l-.1-.1-.1-.1h-.1V18h-.1v-.1h-.1v-.3l-.1-.1v-.2l.1-.1v-.3h.1v-.1l.1-.1.1-.1v-.1h.1l.1-.1h.1l.1-.1h.2l.1-.1h1.1v-.3h-.1v-.1l-.1-.1h-1.1l-.1.1h-.2l-.1.1.2-.8h.2V15h1.4l.1.1h.2l.1.1h.1l.1.1.1.1v.1l.1.1v.4l-.3 1.6z"/><path class="st3" d="M33 18.3l.1-.7-.2.7.1-.1v.1z"/><path class="st3" d="M32.2 18.3h.8v-.1h-.8v.1zm0-.4v.4-.4zm-1.2.4h.6l.1-.1h.2l.1-.1h.1V18h.1v-.1l-.1.1-.1.1h-.1l-.1.1h-.2v.1H31z"/><path class="st3" d="M30.3 17.4v.3h.1v.2h.1v.2h.1l.1.1h.1l.1.1h.2l-.2-.1h-.1l-.1-.1h-.1V18h-.1v-.1l-.1-.1v-.4h-.1z"/><path class="st3" d="M31.4 16.2h-.1l-.1.1H31l-.1.1-.1.1h-.1v.1l-.1.1-.1.1-.1.1v.1l-.1.2v.2h.1V17l.1-.1v-.1l.1-.1.1-.1h.1v-.1l.1-.1h.1l.1-.1h.3v-.1zm.6 0h-.6v.1h.1v-.1h.5zm.4 0h.1-.5.5-.1zm.1-.2v.1l-.1.1h.1V16zm-.4-.3h.1l.1.1h.1v.1h.1v.1-.1l-.1-.1-.1-.1h-.2zm-1.3.1v.1h.1v-.1h.3l.1-.1h.8-1l-.1.1h-.2v.1-.1z"/><path class="st3" d="M31 15.1l-.2.7v.1l.3-.8H31z"/><path class="st3" d="M32.4 15h-1.2v.1H31h.3l.1-.1h1zm1 1v-.5h-.1v-.1l-.1-.1-.1-.1H33l-.1-.1h-.1V15h-.4.2l.1.1h.2l.1.1.1.1h.1v.1l.1.1v.1l.1.1v.3zm-.3 1.6l.3-1.6-.3 1.6z"/><path class="st9" d="M32.3 16.8v-.1h-.2l-.1.1h-.4v.1h-.1l-.1.1-.1.1v.4h.1v.1h.4l.1-.1h.2v-.1l.1-.1.1-.1v-.4z"/><path class="st3" d="M38.6 17.8v-.1l.1-.1.1-.1.1-.1h.2l.1.1.1.1h.1v.2h-.1v-.1l-.1-.1-.1-.1h-.2l-.1.1-.1.1v.1h-.1z"/><path class="st3" d="M38.9 17.8v-.1h.3v.1H39h.1v-.1h-.2v.1zm-.3 0v.2l.1.1v.1h.1v.1h.4v-.1h.1l.1-.1v-.3h-.1v.3h-.1v.1h-.4v-.1h-.1v-.3h-.1z"/><path class="st3" d="M38.9 17.8v.2-.1h.1l.1.1h.1l-.1-.1v-.1h-.2z"/><path class="st11" d="M38.6 17.9v-.3l.1-.1.1-.1h.6l.1.1.1.1v.6l-.1.1-.1.1h-.6l-.1-.1-.1-.1v-.3m.3.1l-.1-.4h.2l.1.2H39v.1h-.1v.1m.1.2h.2v-.8h-.6v.8h.4"/><path class="st3" d="M33.3 18.3h.9l.3-1.8v-.2l.1-.1v-.1l.1-.1.1-.1h.1l.1-.1h.4l.2-.8h-.3l-.1.1h-.1l-.1.1h-.1v.1h-.1v.1h-.1v.1l-.1.1.1-.6h-.8l-.6 3.3z"/><path class="st11" d="M33.3 18.3h.9l.3-1.8v-.2l.1-.1v-.1l.1-.1.1-.1h.1l.1-.1h.4l.2-.8h-.3l-.1.1h-.1l-.1.1h-.1v.1h-.1v.1h-.1v.1l-.1.1.1-.6h-.8l-.6 3.3"/><path class="st3" d="M25.3 18.3h.9l.3-1.8v-.3h.1v-.1l.1-.1h.1v-.1h.2l.1-.1h.3v-.2l.1-.1v-.2l.1-.1v-.1h.1V15h-.5v.1H27v.1h-.1l-.1.1v.1h-.1v.1l-.1.1.1-.6h-.8l-.6 3.3z"/><path class="st11" d="M25.3 18.3h.9l.3-1.8v-.3h.1v-.1l.1-.1h.1v-.1h.2l.1-.1h.3v-.2l.1-.1v-.2l.1-.1v-.1h.1V15h-.5v.1H27v.1h-.1l-.1.1v.1h-.1v.1l-.1.1.1-.6h-.8l-.6 3.3"/><path class="st9" d="M38.6 21.4l.1-.1v-.1h.1v-.1h.4v.1h.1l.1.1v.1h-.1v-.1h-.1v-.1h-.4v.1h-.1v.1h-.1z"/><path class="st9" d="M38.9 21.4v-.1h.2v.1h.1-.3zm-.3.1v-.1h.1v.1h-.1zm.3 0v-.1.1h.2v-.1h.1v.1h-.3zm.4 0v-.1h.1v.1h-.1zm-.7 0v.2l.1.1.1.1h.4l.1-.1h.1v-.3h-.1v.2l-.1.1h-.1v.1h-.2v-.1h-.1l-.1-.1v-.2h-.1z"/><path class="st9" d="M38.9 21.5v.2-.2h.1l.1.2h.1l-.1-.2h-.2z"/><path class="st3" d="M25.4 16v-.4l-.1-.1-.1-.1-.1-.1-.1-.1-.1-.1-.1-.1h-.9l-.2.1-.2.1-.2.1H23l-.1.1-.1.1-.1.1-.1.1v1.4l.1.2.1.2.1.1.1.1.1.1.1.1.1.1.1.1h1.7l.1-.7-.1.1h-2v-.8h2V16h.3zm-.8.3h-1.1v-.5h.7v.4l.4.1z"/></g></g><g id="Layer_4" class="st5"><g class="st6"><path class="st7" d="M50 30c0 .9-.7 1.7-1.7 1.7H1.7C.7 31.6 0 30.9 0 30V2C0 1.1.7.3 1.7.3h46.7c.9.1 1.6.8 1.6 1.7v28z"/><path d="M23 20.7h-2.4l1.5-9.4h2.4zm-4.5-9.4l-2.3 6.5-.3-1.4-.8-4.2s-.1-.8-1.2-.8H10v.2s1.2.2 2.6 1.1l2.1 8.2h2.5l3.9-9.4h-2.6v-.2zm19.2 9.4H40l-2-9.4h-2c-.9 0-1.1.7-1.1.7l-3.6 8.7h2.5l.5-1.4h3.1l.3 1.4zM35 17.4l1.3-3.5.7 3.5h-2zm-3.5-3.8l.3-2s-1.1-.4-2.2-.4c-1.2 0-4.1.5-4.1 3.1 0 2.4 3.4 2.5 3.4 3.7 0 1.3-3 1-4 .2l-.4 2.1s1.1.5 2.8.5c1.7 0 4.2-.9 4.2-3.2 0-2.4-3.4-2.7-3.4-3.7s2.3-.9 3.4-.3z" fill="#0066b2"/><path d="M15.9 16.4l-.8-4.2s-.1-.8-1.2-.8H10v.2s1.9.4 3.6 1.8c1.8 1.3 2.3 3 2.3 3z" fill="#f9a533"/></g></g></svg>